<?xml version="1.0" standalone="no"?>
<!DOCTYPE svg PUBLIC "-//W3C//DTD SVG 20010904//EN"
 "http://www.w3.org/TR/2001/REC-SVG-20010904/DTD/svg10.dtd">
<svg version="1.0" xmlns="http://www.w3.org/2000/svg"
 width="700.000000pt" height="700.000000pt" viewBox="0 0 700.000000 700.000000"
 preserveAspectRatio="xMidYMid meet">
<metadata>
Created by potrace 1.11, written by Peter Selinger 2001-2013
</metadata>
<g transform="translate(0.000000,700.000000) scale(0.100000,-0.100000)"
fill="#000000" stroke="none">
<path d="M2777 6984 c-420 -76 -762 -334 -872 -659 -22 -65 -26 -104 -14 -126
7 -14 -1 -33 -35 -86 -106 -165 -183 -367 -220 -575 -15 -89 -19 -273 -19
-1065 0 -486 -2 -883 -4 -883 -2 0 -12 5 -22 11 -24 16 -67 4 -85 -24 -8 -12
-18 -42 -21 -67 -4 -25 -11 -66 -15 -92 -5 -26 -12 -69 -16 -95 -3 -26 -9 -64
-13 -84 -10 -43 -2 -61 50 -112 l38 -37 -33 -63 c-92 -170 -185 -480 -211
-708 -3 -25 -8 -56 -10 -70 -10 -48 -19 -257 -20 -419 0 -145 5 -238 19 -422
3 -41 1 -47 -18 -52 -45 -11 -49 -46 -21 -186 l25 -127 -24 -72 c-32 -92 -37
-119 -41 -221 -8 -198 81 -316 248 -328 64 -5 68 -6 89 -41 12 -20 33 -46 46
-59 130 -124 367 -60 428 117 8 23 24 43 47 56 61 35 88 59 114 102 50 85 23
240 -57 321 -25 26 -82 62 -163 102 -115 57 -125 65 -130 94 -2 17 -3 33 -1
35 1 2 24 -16 49 -40 115 -109 276 -184 435 -204 109 -13 258 -210 294 -391 3
-10 9 -38 14 -61 8 -34 6 -47 -9 -72 -33 -54 -46 -122 -45 -235 2 -159 -39
-146 448 -146 l399 0 24 25 c24 23 25 30 24 132 -1 78 -7 124 -21 165 -18 55
-19 67 -3 168 2 14 7 52 11 85 3 33 8 62 11 65 10 10 115 7 118 -4 5 -13 13
-68 21 -138 3 -29 7 -63 9 -76 2 -12 -8 -45 -22 -73 -23 -44 -27 -64 -30 -175
-3 -121 -3 -125 21 -149 l25 -25 396 0 c243 0 403 4 415 10 29 15 39 66 36
176 -3 73 -9 112 -23 145 -21 48 -21 56 3 169 33 150 75 232 165 321 51 50
104 91 110 84 2 -2 33 2 69 10 92 19 101 21 145 39 l39 17 -41 -39 c-46 -45
-66 -77 -83 -142 -34 -128 -2 -214 106 -283 35 -22 64 -46 64 -54 0 -19 38
-84 68 -116 94 -101 285 -105 370 -8 12 14 32 41 43 59 19 30 24 32 77 32 58
0 129 25 166 58 105 94 123 316 40 526 -13 35 -13 46 1 117 9 44 18 92 21 107
3 15 7 35 10 45 8 27 -14 73 -41 85 -18 8 -23 17 -20 39 24 204 25 725 0 851
-2 10 -6 43 -10 73 -27 226 -125 563 -216 741 l-20 39 34 32 c52 48 55 58 40
145 -16 92 -33 204 -39 252 -6 48 -47 84 -89 77 l-31 -5 0 896 c-1 494 -4 920
-7 947 -16 121 -20 145 -44 234 -39 150 -109 312 -188 436 -20 30 -32 55 -28
55 5 0 15 12 24 26 44 73 -74 316 -225 465 -153 151 -380 265 -634 318 -121
26 -317 22 -422 -9 -86 -25 -192 -78 -235 -118 -28 -26 -36 -28 -112 -27 -70
0 -85 3 -105 22 -59 55 -182 113 -297 139 -56 13 -268 11 -344 -2z m243 -135
c0 -7 -3 -10 -6 -7 -3 4 -38 -5 -77 -19 -40 -13 -79 -26 -87 -28 -268 -60
-487 -165 -677 -324 -35 -28 -63 -49 -63 -45 0 4 19 31 41 61 160 207 498 365
797 372 50 1 72 -2 72 -10z m1229 -3 c5 -3 25 -8 46 -12 70 -11 220 -65 305
-111 150 -80 255 -171 333 -291 64 -98 63 -107 -6 -40 -34 34 -78 72 -97 87
-19 14 -37 29 -40 32 -8 10 -158 109 -165 109 -4 0 -19 8 -33 18 -46 31 -185
90 -288 121 -54 17 -144 46 -199 66 l-100 36 117 -5 c65 -2 122 -7 127 -10z
m-259 -170 c52 -4 97 -9 100 -11 3 -2 22 -6 42 -9 37 -6 83 -28 141 -69 51
-35 150 -120 176 -150 13 -16 35 -33 48 -38 35 -13 82 14 90 51 l5 30 46 -33
c289 -203 477 -465 565 -787 26 -94 32 -126 44 -225 3 -27 6 -481 6 -1009 l0
-958 -34 -32 c-19 -17 -68 -60 -109 -96 -41 -36 -80 -69 -86 -75 -6 -5 -29
-26 -50 -45 -22 -19 -67 -59 -102 -89 -69 -59 -78 -62 -312 -95 -63 -10 -126
-19 -140 -21 -22 -3 -63 -8 -175 -21 -216 -24 -1304 -24 -1495 0 -19 3 -55 7
-80 10 -87 10 -136 17 -260 36 -223 35 -212 31 -293 101 -40 35 -137 120 -215
188 l-142 124 -1 56 c-3 360 1 1872 6 1921 42 426 276 803 646 1042 l55 36 -4
-28 c-5 -36 13 -68 44 -80 33 -13 56 0 119 64 65 66 164 139 240 176 46 23 80
31 145 36 47 4 86 7 87 8 7 5 819 -3 893 -8z m-2224 -3421 c71 -66 147 -137
169 -158 84 -81 197 -178 345 -297 90 -72 160 -132 160 -136 0 -5 -69 -136
-75 -142 -1 -2 -9 3 -17 10 -105 97 -323 296 -352 321 -43 38 -203 184 -271
248 -38 37 -87 82 -107 100 -37 34 -37 34 -28 84 5 28 12 65 15 83 5 26 8 30
19 20 7 -7 71 -67 142 -133z m3631 123 c1 -29 15 -124 20 -131 6 -9 -26 -40
-286 -277 -15 -14 -73 -67 -129 -119 -56 -51 -111 -101 -121 -110 -10 -9 -60
-54 -111 -101 -51 -47 -102 -93 -113 -103 -20 -17 -21 -16 -59 50 -20 38 -38
71 -38 75 0 6 56 54 160 138 24 19 48 40 54 45 6 6 31 26 56 45 59 46 113 93
263 233 17 16 80 74 140 130 61 56 117 110 126 120 18 20 38 22 38 5z m-3779
-1105 c0 -713 3 -761 47 -867 8 -20 15 -37 15 -38 0 -2 -59 -3 -130 -3 -124
-1 -130 0 -131 20 -1 11 -3 29 -4 40 -11 88 -18 250 -18 405 -1 235 11 397 38
540 2 14 7 36 9 50 19 112 77 322 106 385 5 11 21 48 36 83 15 34 28 62 29 62
2 0 3 -305 3 -677z m3852 487 c45 -135 86 -312 106 -455 3 -27 8 -58 10 -68
23 -127 22 -653 -1 -812 -1 -11 -3 -29 -4 -40 -1 -19 -8 -20 -125 -20 l-123 0
14 40 c17 48 33 116 40 170 3 22 6 341 6 709 l1 670 24 -54 c13 -30 36 -93 52
-140z m-2985 125 c28 -3 66 -8 85 -10 19 -3 58 -7 85 -10 28 -4 64 -8 80 -10
189 -26 1316 -26 1530 0 22 3 58 7 80 10 22 2 63 7 90 10 28 3 75 9 105 14 30
5 56 8 58 6 1 -1 -23 -24 -55 -51 -122 -102 -143 -126 -143 -156 0 -16 19 -64
41 -106 132 -245 131 -244 175 -244 27 -1 38 7 124 81 l50 43 -7 -118 c-9
-158 -10 -456 -1 -574 18 -229 102 -405 241 -500 26 -19 46 -37 45 -41 -8 -19
-111 -93 -174 -124 -135 -66 -85 -64 -1396 -63 -1102 0 -1192 1 -1255 18 -112
29 -201 76 -280 148 l-33 29 48 33 c100 69 188 210 217 350 28 136 36 394 21
699 l-7 144 65 -57 c36 -32 79 -61 96 -66 51 -15 60 -2 206 279 40 78 36 89
-57 171 -113 98 -126 112 -104 106 11 -3 43 -7 70 -11z m2769 -479 c0 -256 -3
-469 -6 -472 -12 -11 -323 -80 -328 -73 -11 17 2 567 15 636 2 10 4 35 4 56 1
41 -16 23 224 249 45 42 84 75 87 73 3 -2 5 -213 4 -469z m-3385 366 c36 -35
94 -90 129 -123 54 -51 62 -64 63 -97 0 -20 2 -46 4 -57 12 -60 27 -606 18
-631 -3 -8 -36 -4 -106 13 -56 13 -109 26 -117 28 -82 17 -100 26 -101 50 0
14 0 216 0 450 0 234 0 435 0 447 1 25 -3 28 110 -80z m-11 -1011 c43 -11 88
-22 102 -24 14 -3 45 -10 68 -17 44 -11 44 -12 37 -48 -22 -124 -88 -231 -187
-303 l-28 -20 -20 33 c-23 37 -56 137 -64 195 -5 34 -10 157 -7 191 1 16 9 15
99 -7z m3395 -51 c-2 -107 -11 -172 -31 -231 -17 -47 -48 -116 -57 -127 -2 -2
-16 3 -33 12 -49 25 -121 106 -151 170 -30 64 -57 163 -48 173 11 10 271 71
297 70 24 -2 25 -4 23 -67z m-3588 -500 c2 -8 7 -49 10 -90 3 -41 10 -86 15
-100 11 -26 116 -93 219 -140 89 -40 100 -48 121 -89 38 -75 26 -137 -31 -167
-34 -17 -24 -22 -104 49 -38 35 -90 36 -117 5 -30 -35 -17 -75 47 -133 46 -42
53 -53 45 -71 -14 -35 -75 -76 -114 -76 -65 0 -91 22 -131 114 -19 43 -34 48
-138 48 -73 0 -81 2 -107 28 -61 61 -64 183 -8 349 33 101 33 88 2 257 -2 10
-2 22 0 25 2 3 68 6 145 6 117 0 142 -3 146 -15z m3961 8 c3 -4 -1 -39 -10
-79 -21 -95 -21 -102 16 -210 38 -114 45 -251 15 -306 -28 -53 -52 -63 -147
-63 -95 -1 -114 -9 -132 -61 -17 -51 -36 -75 -69 -92 -57 -27 -146 10 -170 71
-8 20 -4 28 24 50 92 76 106 108 67 150 -34 36 -74 29 -135 -24 -57 -48 -68
-49 -117 -6 -25 21 -23 92 2 142 18 35 35 47 133 96 124 63 192 106 206 132 5
10 12 58 16 107 4 50 11 92 15 95 12 8 278 5 286 -2z m-444 -106 c-3 -23 -17
-35 -82 -70 -94 -51 -113 -54 -45 -8 28 19 67 50 89 70 21 20 39 36 41 36 1 0
0 -13 -3 -28z m-732 -221 c0 -5 -8 -15 -17 -22 -39 -32 -95 -138 -128 -242
-19 -60 -35 -115 -35 -123 0 -17 0 -17 -41 0 -27 11 -82 14 -249 12 -118 -2
-223 -5 -234 -7 -20 -4 -21 -2 -32 96 -4 33 -8 67 -10 75 -1 8 -3 25 -3 36 -1
12 -10 32 -20 45 -18 22 -25 24 -162 25 -203 3 -199 7 -219 -166 -16 -138 -12
-130 -67 -114 -35 11 -98 13 -252 11 -113 -2 -213 -6 -222 -10 -12 -6 -20 10
-42 89 -31 107 -60 170 -109 235 -19 24 -37 50 -42 57 -6 9 185 12 938 12 536
0 946 -4 946 -9z m-1213 -544 c48 -33 69 -78 72 -154 l2 -53 -309 0 -309 0 3
64 c4 86 22 118 84 149 50 25 57 26 233 24 182 -2 182 -2 224 -30z m971 7 c61
-30 82 -67 86 -149 l3 -65 -308 0 -307 0 3 69 c3 72 14 96 56 129 42 33 80 39
252 39 157 0 172 -1 215 -23z"/>
<path d="M2610 5975 c-199 -36 -354 -118 -501 -264 -240 -239 -328 -573 -241
-911 26 -100 93 -232 163 -320 315 -399 872 -479 1284 -185 55 39 152 131 190
180 15 20 16 20 32 -3 25 -36 126 -130 189 -177 152 -114 365 -180 568 -177
490 8 898 414 911 907 2 91 -1 132 -19 232 -8 42 -53 167 -79 218 -104 207
-316 391 -535 465 -349 117 -746 14 -991 -257 l-58 -64 -89 88 c-102 101 -204
169 -331 219 -48 19 -88 34 -88 33 0 -1 -25 4 -55 11 -80 18 -262 20 -350 5z
m309 -142 c218 -46 393 -163 519 -349 63 -94 106 -93 167 2 147 229 411 367
687 359 108 -3 116 -4 207 -31 91 -26 211 -88 268 -139 199 -176 294 -372 296
-610 1 -110 -4 -153 -29 -235 -47 -158 -136 -289 -276 -406 -79 -67 -258 -143
-370 -158 -128 -17 -287 0 -402 45 -154 61 -272 155 -374 299 -53 75 -58 80
-92 80 -33 -1 -48 -14 -91 -80 -186 -284 -562 -419 -887 -318 -401 123 -637
527 -547 935 49 221 202 422 407 532 52 28 195 74 258 84 55 8 198 3 259 -10z"/>
<path d="M2594 5735 c-139 -37 -240 -97 -340 -203 -182 -192 -236 -466 -145
-726 51 -144 186 -299 328 -374 205 -108 446 -112 647 -10 84 42 120 70 198
152 143 148 220 388 186 576 -5 25 -11 58 -13 73 -16 87 -97 235 -171 312
-138 143 -296 213 -494 220 -87 3 -120 0 -196 -20z m347 -144 c68 -21 174 -84
220 -130 110 -110 170 -250 171 -401 1 -77 -1 -92 -22 -170 -42 -155 -175
-299 -335 -362 -68 -26 -96 -32 -186 -34 -158 -5 -287 40 -394 138 -177 162
-235 400 -152 625 62 166 228 309 404 348 78 18 213 11 294 -14z"/>
<path d="M2804 5349 c-216 -82 -276 -353 -114 -517 79 -80 183 -110 293 -85
101 23 173 82 218 178 55 119 24 273 -74 362 -85 77 -217 102 -323 62z m215
-157 c46 -37 65 -75 67 -139 8 -181 -252 -243 -330 -78 -44 91 -4 198 89 241
48 23 130 11 174 -24z"/>
<path d="M4131 5749 c-240 -46 -453 -221 -537 -444 -34 -91 -39 -129 -38 -270
0 -96 5 -134 22 -190 66 -205 227 -377 420 -448 61 -23 81 -29 147 -43 37 -9
177 -5 238 6 255 47 459 228 544 485 22 68 26 98 27 200 0 178 -39 300 -141
435 -90 120 -255 229 -393 260 -68 15 -230 20 -289 9z m279 -153 c179 -53 323
-197 386 -386 27 -82 25 -244 -5 -330 -101 -290 -388 -446 -682 -371 -184 47
-344 201 -396 380 -22 75 -26 233 -8 302 54 205 224 370 426 414 77 16 208 12
279 -9z"/>
<path d="M4004 5355 c-84 -25 -146 -79 -193 -169 -22 -43 -26 -64 -26 -131 0
-67 5 -89 28 -137 85 -174 300 -233 461 -127 150 100 185 305 76 452 -76 103
-219 150 -346 112z m173 -146 c113 -54 127 -219 26 -296 -137 -104 -330 41
-269 202 39 100 145 141 243 94z"/>
<path d="M4168 3664 c-11 -10 -149 -54 -218 -68 -68 -13 -97 -17 -225 -31 -64
-7 -333 -7 -410 0 -168 15 -203 20 -310 41 -38 8 -83 17 -98 20 -16 3 -47 12
-69 20 -80 28 -138 6 -138 -51 0 -49 37 -70 176 -103 407 -97 845 -101 1189
-12 151 39 200 77 179 137 -8 24 -65 59 -76 47z"/>
<path d="M2894 2498 l-24 -19 0 -244 c0 -267 6 -318 52 -411 69 -139 201 -239
354 -269 68 -13 339 -6 398 10 131 35 249 128 308 242 58 113 63 141 63 419 0
234 -1 252 -19 270 -19 18 -40 19 -563 20 -522 1 -545 0 -569 -18z m1012 -303
c0 -243 -14 -300 -98 -391 -86 -93 -156 -116 -358 -116 -124 0 -153 3 -203 22
-74 28 -134 74 -174 134 -55 80 -63 127 -63 342 l0 192 448 -2 447 -1 1 -180z"/>
</g>
</svg>
